<svg width="24" height="24" viewBox="0 0 24 24" fill="none" xmlns="http://www.w3.org/2000/svg">
<path fill-rule="evenodd" clip-rule="evenodd" d="M20.4375 6.375H3.5625V9.1875C4.59803 9.1875 5.4375 10.027 5.4375 11.0625V14.4375C5.4375 17.2659 5.4375 18.6801 6.31618 19.5588C7.19486 20.4375 8.60907 20.4375 11.4375 20.4375H12.5625C15.3909 20.4375 16.8051 20.4375 17.6838 19.5588C18.5625 18.6801 18.5625 17.2659 18.5625 14.4375V11.0625C18.5625 10.027 19.402 9.1875 20.4375 9.1875V6.375ZM10.6562 11.0625C10.6562 10.5102 10.2085 10.0625 9.65625 10.0625C9.10397 10.0625 8.65625 10.5102 8.65625 11.0625V15.75C8.65625 16.3023 9.10397 16.75 9.65625 16.75C10.2085 16.75 10.6562 16.3023 10.6562 15.75V11.0625ZM15.3438 11.0625C15.3438 10.5102 14.896 10.0625 14.3438 10.0625C13.7915 10.0625 13.3438 10.5102 13.3438 11.0625V15.75C13.3438 16.3023 13.7915 16.75 14.3438 16.75C14.896 16.75 15.3438 16.3023 15.3438 15.75V11.0625Z" fill="white"/>
<path d="M10.1889 3.90993C10.2957 3.81026 10.5311 3.72218 10.8586 3.65937C11.186 3.59655 11.5872 3.5625 12 3.5625C12.4128 3.5625 12.814 3.59655 13.1414 3.65937C13.4689 3.72218 13.7043 3.81026 13.8111 3.90993" stroke="white" stroke-width="2" stroke-linecap="round"/>
</svg>
